<?xml version="1.0" standalone="no"?>
<!DOCTYPE svg PUBLIC "-//W3C//DTD SVG 20010904//EN"
 "http://www.w3.org/TR/2001/REC-SVG-20010904/DTD/svg10.dtd">
<svg version="1.0" xmlns="http://www.w3.org/2000/svg"
 width="700.000000pt" height="700.000000pt" viewBox="0 0 700.000000 700.000000"
 preserveAspectRatio="xMidYMid meet">
<metadata>
Created by potrace 1.11, written by Peter Selinger 2001-2013
</metadata>
<g transform="translate(0.000000,700.000000) scale(0.100000,-0.100000)"
fill="#000000" stroke="none">
<path d="M0 3500 l0 -3500 3500 0 3500 0 0 3500 0 3500 -3500 0 -3500 0 0
-3500z m6315 -1585 c0 -17 -8 -20 -52 -23 l-53 -3 0 -140 c0 -140 0 -140 -22
-137 -22 3 -23 6 -26 141 l-3 137 -49 0 c-47 0 -50 2 -50 25 l0 26 128 -3
c119 -3 127 -4 127 -23z m196 -100 l47 -120 19 45 c11 25 32 80 49 123 l29 78
40 -3 40 -3 0 -160 0 -160 -25 0 -25 0 -3 130 -3 130 -52 -130 c-32 -80 -58
-131 -68 -133 -11 -2 -28 29 -64 120 -26 68 -52 127 -56 133 -5 5 -9 -49 -9
-123 l0 -132 -25 0 -25 0 0 166 0 165 42 -3 43 -3 46 -120z m-5518 -241 c224
-58 347 -233 347 -494 -1 -253 -105 -416 -311 -486 -180 -61 -388 -16 -514
109 -179 180 -180 572 -1 751 116 117 308 165 479 120z m1072 -109 l0 -120
-76 -6 c-95 -8 -140 -23 -179 -59 l-30 -28 0 -331 0 -331 -130 0 -130 0 0 490
0 490 120 0 120 0 0 -55 c0 -30 3 -55 8 -55 4 0 20 13 35 29 48 52 170 102
237 98 l25 -2 0 -120z m631 114 c136 -19 230 -76 275 -167 24 -47 24 -48 24
-432 l0 -385 -112 -3 -112 -3 -12 41 c-7 22 -16 40 -20 40 -4 0 -23 -9 -41
-19 -114 -67 -306 -87 -404 -43 -99 45 -154 132 -155 245 0 35 5 84 12 108 17
58 97 137 178 178 70 36 254 86 354 96 l67 7 0 33 c0 94 -44 130 -160 130 -85
0 -142 -21 -201 -73 l-35 -31 -80 45 c-43 25 -80 47 -82 49 -8 8 41 60 89 96
55 42 135 75 212 88 74 12 115 12 203 0z m1210 -14 c60 -25 97 -58 129 -116
l30 -54 3 -402 3 -403 -125 0 -126 0 0 318 c0 355 -7 423 -45 462 -22 22 -34
25 -88 24 -68 0 -124 -21 -194 -73 l-43 -31 0 -350 0 -350 -125 0 -125 0 0
475 0 474 33 6 c188 31 181 33 192 -42 3 -23 9 -43 11 -43 3 0 24 13 47 29
137 94 307 125 423 76z m888 -1 c28 -10 66 -34 88 -56 41 -41 42 -40 53 25 l6
37 109 0 110 0 0 -487 c0 -291 -4 -514 -11 -552 -34 -212 -177 -311 -454 -313
-152 -1 -257 30 -339 102 -32 28 -76 102 -76 127 0 5 48 18 108 27 59 10 114
19 122 22 9 2 22 -8 32 -25 26 -46 71 -64 163 -65 153 -2 204 60 205 248 l0
79 -41 -47 c-23 -26 -54 -53 -70 -62 -117 -60 -311 -26 -414 74 -113 108 -162
324 -119 528 38 186 156 322 306 354 57 12 162 4 222 -16z m1130 1 c177 -54
286 -223 286 -444 l0 -81 -323 0 -324 0 8 -58 c21 -151 84 -211 220 -212 83 0
129 18 183 75 l42 43 92 -50 92 -50 -17 -30 c-40 -67 -143 -135 -250 -163 -73
-19 -243 -19 -304 -1 -159 48 -264 164 -299 331 -17 77 -17 245 0 315 55 234
226 359 470 344 41 -2 97 -11 124 -19z"/>
<path d="M820 1370 c-58 -12 -85 -26 -118 -64 -47 -54 -65 -128 -60 -255 3
-94 7 -112 33 -159 48 -87 134 -124 242 -102 112 24 167 119 168 290 0 113
-22 184 -73 235 -47 47 -123 69 -192 55z"/>
<path d="M2655 1076 c-140 -29 -221 -70 -249 -125 -31 -58 -14 -141 36 -175
51 -36 185 -7 261 55 l37 30 0 115 c0 85 -3 114 -12 113 -7 -1 -40 -7 -73 -13z"/>
<path d="M4647 1395 c-109 -38 -157 -166 -137 -360 17 -164 70 -228 190 -228
62 0 90 11 137 56 51 48 68 112 68 252 0 111 -2 124 -28 172 -32 62 -76 98
-137 112 -55 13 -47 13 -93 -4z"/>
<path d="M5722 1409 c-78 -15 -130 -72 -147 -162 l-7 -37 197 0 198 0 -7 46
c-15 113 -111 175 -234 153z"/>
</g>
</svg>
